<svg width="512" height="512" viewBox="0 0 512 512" fill="none" xmlns="http://www.w3.org/2000/svg">
<g clip-path="url(#clip0_14_2)">
<path d="M256 512C397.385 512 512 397.385 512 256C512 114.615 397.385 0 256 0C114.615 0 0 114.615 0 256C0 397.385 114.615 512 256 512Z" fill="#1F7DBA"/>
<path d="M281.64 157.986L219.169 95.5152L169.066 145.618L195.432 171.984L170.639 196.777L221.124 247.262L207.665 260.721L133.412 186.468L83.3091 236.571L109.723 262.985L84.9301 287.778L178.006 380.854L147.582 411.278L248.174 511.87C250.774 511.948 253.381 512 256 512C397.02 512 511.397 397.973 511.986 257.092L347.26 92.3652L281.64 157.986Z" fill="#115F92"/>
<path d="M206.293 210.049C231.306 205.631 246.526 173.423 240.288 138.111C234.05 102.8 208.717 77.756 183.704 82.1745C158.692 86.5929 143.472 118.801 149.71 154.112C155.947 189.424 181.281 214.468 206.293 210.049Z" fill="white"/>
<path d="M120.543 301.042C145.556 296.624 160.776 264.416 154.538 229.105C148.3 193.793 122.967 168.749 97.9544 173.168C72.9418 177.586 57.7218 209.794 63.9596 245.105C70.1973 280.417 95.5308 305.461 120.543 301.042Z" fill="white"/>
<path d="M362.52 154.143C368.757 118.832 353.537 86.6242 328.525 82.2057C303.512 77.7873 278.179 102.831 271.941 138.143C265.703 173.454 280.923 205.662 305.936 210.08C330.948 214.499 356.282 189.455 362.52 154.143Z" fill="#E9EDF5"/>
<path d="M448.333 245.103C454.57 209.792 439.35 177.584 414.338 173.166C389.325 168.747 363.992 193.791 357.754 229.103C351.516 264.414 366.736 296.622 391.749 301.04C416.761 305.459 442.095 280.415 448.333 245.103Z" fill="#E9EDF5"/>
<path d="M256 213.906C234.017 213.906 214.635 226.52 203.19 245.705C190.937 266.245 175.575 284.294 156.903 297.228C138.434 310.021 126.178 332.526 126.178 358.153C126.178 397.986 155.788 430.277 192.314 430.277C198.384 430.277 204.262 429.385 209.844 427.715C224.94 423.198 240.47 420.94 256 420.94L279.456 322.092L256 213.906Z" fill="white"/>
<path d="M256 213.906C277.983 213.906 297.365 226.52 308.81 245.705C321.063 266.245 336.425 284.294 355.097 297.228C373.566 310.021 385.822 332.526 385.822 358.153C385.822 397.986 356.212 430.277 319.686 430.277C313.616 430.277 307.738 429.385 302.156 427.715C287.061 423.198 271.53 420.94 256 420.94V213.906Z" fill="#E9EDF5"/>
</g>
<defs>
<clipPath id="clip0_14_2">
<rect width="512" height="512" fill="white"/>
</clipPath>
</defs>
</svg>
